<?xml version="1.0" encoding="UTF-8" standalone="no"?>
<!-- Created with Inkscape (http://www.inkscape.org/) -->

<svg
   version="1.1"
   id="svg2"
   width="250.44456"
   height="187.97723"
   viewBox="0 0 250.44457 187.97723"
   sodipodi:docname="path181.svg"
   inkscape:version="1.2.2 (b0a8486541, 2022-12-01)"
   inkscape:dataloss="true"
   xmlns:inkscape="http://www.inkscape.org/namespaces/inkscape"
   xmlns:sodipodi="http://sodipodi.sourceforge.net/DTD/sodipodi-0.dtd"
   xmlns="http://www.w3.org/2000/svg"
   xmlns:svg="http://www.w3.org/2000/svg">
  <defs
     id="defs6" />
  <sodipodi:namedview
     id="namedview4"
     pagecolor="#ffffff"
     bordercolor="#000000"
     borderopacity="0.25"
     inkscape:showpageshadow="2"
     inkscape:pageopacity="0.0"
     inkscape:pagecheckerboard="0"
     inkscape:deskcolor="#d1d1d1"
     showgrid="false"
     inkscape:zoom="1.9909628"
     inkscape:cx="228.28152"
     inkscape:cy="175.04094"
     inkscape:window-width="1920"
     inkscape:window-height="1000"
     inkscape:window-x="1920"
     inkscape:window-y="32"
     inkscape:window-maximized="1"
     inkscape:current-layer="g8" />
  <g
     inkscape:groupmode="layer"
     inkscape:label="Image"
     id="g8"
     transform="translate(-121.66124,-90.093529)">
    <path
       id="path181"
       style="fill:none;fill-opacity:1;stroke:#ffffff;stroke-width:5;stroke-linecap:square;stroke-linejoin:miter;stroke-dasharray:none;stroke-opacity:1"
       d="m 206.78645,92.601846 c -15.39193,0.296829 -28.30206,8.453104 -31.48828,11.525394 -6.06723,5.85028 -10.75115,12.84398 -10.68555,25.4961 0.024,4.62099 3.30756,25.43403 5.02149,30.375 1.89036,5.4496 10.36328,34.61328 10.36328,34.61328 l 66.82422,-58.39648 30.80469,26.13672 v -12.89649 h 19.54295 v 29.47852 l 11.68555,9.91406 c 0,0 6.74833,-21.4469 8.63867,-26.89648 1.71393,-4.94099 5.53464,-23.66222 5.5586,-28.28321 0.0656,-12.65211 -1.42352,-17.58534 -8.39649,-27.94141 -3.04255,-4.51874 -16.40859,-14.64718 -36.2871,-9.699222 -9.26259,2.305548 -15.5402,4.721252 -20.43945,6.601562 -1.98628,0.45431 -4.12604,0.8462 -6.29102,1.0332 -7.58055,0.6548 -14.01015,-4.903603 -33.88867,-9.851559 -3.72721,-0.927742 -7.4109,-1.277484 -10.96289,-1.208985 z m 81.90273,11.398904 c 9.28469,-0.65392 15.53801,2.09051 20.89063,8.77982 5.08651,7.05984 4.80089,13.89958 4.76718,19.48924 -0.0294,4.86758 -2.2331,17.38815 -5.48438,23.01954 -3.25126,5.63136 -0.95453,-16.32911 -0.95453,-16.32911 0,0 0.61239,-15.45176 -2.95953,-20.74707 -3.57192,-5.2953 -11.21231,-9.78271 -20.16797,-8.70507 -9.05461,1.08954 -24.1897,5.16778 -28.73827,6.22851 l -7.84375,1.33008 c -1.64277,-0.61717 2.60928,-1.81436 6.36719,-3.42969 3.75788,-1.61532 11.87997,-4.70102 17.13488,-6.235 4.59803,-1.34223 11.76686,-3.3519 16.98855,-3.40125 z"
       sodipodi:nodetypes="sssscccccccsssscssscccscssccssc"
       inkscape:export-filename="logo_out.svg"
       inkscape:export-xdpi="115.48387"
       inkscape:export-ydpi="115.48387" />
    <path
       id="path1364"
       style="fill:none;fill-opacity:1;stroke:#ffffff;stroke-width:5;stroke-linecap:square;stroke-linejoin:miter;stroke-dasharray:none;stroke-opacity:1"
       d="m 247.36653,167.45342 -0.33984,0.63867 -124.03907,77.63672 58.48047,-27.57813 c 0,0 -1.33831,27.38565 3.18555,37.43555 4.52384,10.0499 11.22877,25.60873 26.35547,17.93164 15.1267,-7.67709 6.73795,-33.04411 9.09086,-46.16921 1.36178,-7.59633 2.94325,-10.97889 7.581,-14.12965 3.87654,-2.12746 10.01056,-4.2676 13.47737,-4.21862 3.69597,0.0729 7.0767,-0.1206 12.31537,0.80894 1.69087,0.30002 3.22153,1.00537 5.0686,2.17534 4.99449,3.60463 7.24411,7.23313 8.76371,14.22768 2.83091,13.03035 -6.49198,39.25734 8.63473,46.93443 15.12668,7.67709 21.83161,-7.88174 26.35546,-17.93164 4.52385,-10.0499 4.04687,-42.10938 4.04687,-42.10938 l 64.44141,31.18555 -123.07616,-76.625 v -0.002 h -0.002 z"
       sodipodi:nodetypes="ccccsssccscssscccccc" />
    <path
       id="rect1477"
       style="fill:none;fill-opacity:1;stroke:#ffffff;stroke-width:5;stroke-linecap:square;stroke-linejoin:miter;stroke-dasharray:none;stroke-opacity:1"
       d="m 241.04622,230.04912 c -1.13282,0 -2.04492,0.9121 -2.04492,2.04492 v 5.50391 h -5.50196 c -1.13282,0 -2.04492,0.9121 -2.04492,2.04492 v 5.52344 c 0,1.13282 0.9121,2.04492 2.04492,2.04492 h 5.50196 v 5.50195 c 0,1.13282 0.9121,2.04493 2.04492,2.04493 h 5.52344 c 1.13282,0 2.04492,-0.91211 2.04492,-2.04493 v -5.50195 h 5.5039 c 1.13282,0 2.04492,-0.9121 2.04492,-2.04492 v -5.52344 c 0,-1.13282 -0.9121,-2.04492 -2.04492,-2.04492 h -5.5039 v -5.50391 c 0,-1.13282 -0.9121,-2.04492 -2.04492,-2.04492 z" />
  </g>
</svg>
